SplineFontDB: 3.0
FontName: Agypta
FullName: Agypta
FamilyName: Agypta
Weight: Regular
Copyright: Created by Guillaume Ayoub with FontForge 2.0 (http://fontforge.sf.net)
UComments: "2013-7-28: Created." 
Version: 001.000
ItalicAngle: -13
UnderlinePosition: -100
UnderlineWidth: 50
Ascent: 750
Descent: 250
LayerCount: 2
Layer: 0 0 "Arri+AOgA-re"  1
Layer: 1 0 "Avant"  0
XUID: [1021 779 1303216649 2718556]
FSType: 8
OS2Version: 0
OS2_WeightWidthSlopeOnly: 0
OS2_UseTypoMetrics: 1
CreationTime: 1375026792
ModificationTime: 1402156090
PfmFamily: 17
TTFWeight: 500
TTFWidth: 5
LineGap: 90
VLineGap: 0
OS2TypoAscent: 0
OS2TypoAOffset: 1
OS2TypoDescent: 0
OS2TypoDOffset: 1
OS2TypoLinegap: 90
OS2WinAscent: 0
OS2WinAOffset: 1
OS2WinDescent: 0
OS2WinDOffset: 1
HheadAscent: 0
HheadAOffset: 1
HheadDescent: 0
HheadDOffset: 1
OS2Vendor: 'PfEd'
Lookup: 258 0 0 "kerning"  {"kerning" [150,20,0] } ['kern' ('DFLT' <'dflt' > 'latn' <'dflt' > ) ]
MarkAttachClasses: 1
DEI: 91125
KernClass2: 14 14 "kerning" 
 18 A L R comma period
 3 D O
 5 F P T
 3 H M
 5 J N U
 37 V W Y quotesingle quotedbl quoteright
 3 a u
 9 b e o p S
 3 d i
 1 f
 5 h m n
 1 q
 7 r v w y
 14 A comma period
 7 C G O Q
 1 T
 37 V W Y quotesingle quotedbl quoteright
 13 a c d e g o q
 1 b
 9 h k l M N
 1 i
 3 m n
 1 p
 1 t
 1 u
 5 v w y

StartChar: H
Encoding: 72 72 0
Width: 732
VWidth: 0
Flags: MW
HStem: 0 100<69 162 255 324 431 524 617 687> 300 100<324 570> 550 100<196 265 358 451 558 628 721 814>
DStem2: 162 100 255 100 0.223119 0.974791<20.7501 225.972 328.583 461.637> 524 100 617 100 0.225176 0.974318<20.9413 205.222 308.058 461.861>
LayerCount: 2
Fore
SplineSet
196 650 m 25
 475 650 l 25
 451 550 l 25
 358 550 l 25
 324 400 l 25
 594 400 l 29
 628 550 l 29
 535 550 l 25
 558 650 l 25
 837 650 l 25
 814 550 l 25
 721 550 l 29
 617 100 l 29
 710 100 l 25
 687 0 l 25
 408 0 l 25
 431 100 l 25
 524 100 l 25
 570 300 l 25
 301 300 l 25
 255 100 l 25
 348 100 l 25
 324 0 l 25
 46 0 l 25
 69 100 l 25
 162 100 l 25
 265 550 l 25
 172 550 l 25
 196 650 l 25
EndSplineSet
EndChar

StartChar: I
Encoding: 73 73 1
Width: 370
VWidth: 0
Flags: MW
HStem: 0 100<69 162 255 324> 550 100<196 265 358 451>
DStem2: 162 100 255 100 0.223119 0.974791<20.7501 461.637>
LayerCount: 2
Fore
SplineSet
255 100 m 29
 348 100 l 25
 324 0 l 25
 46 0 l 25
 69 100 l 25
 162 100 l 29
 265 550 l 29
 172 550 l 25
 196 650 l 25
 475 650 l 25
 451 550 l 25
 358 550 l 29
 255 100 l 29
EndSplineSet
EndChar

StartChar: L
Encoding: 76 76 2
Width: 574
VWidth: 0
Flags: MW
HStem: 0 100<69 162 255 459> 550 100<196 265 358 451>
DStem2: 162 100 255 100 0.223119 0.974791<20.7501 461.637> 459 100 573 190 0.225608 0.974218<0 92.4174>
LayerCount: 2
Fore
SplineSet
480 190 m 5
 573 190 l 13
 529 0 l 29
 46 0 l 25
 69 100 l 25
 162 100 l 25
 265 550 l 25
 172 550 l 25
 196 650 l 25
 475 650 l 25
 451 550 l 25
 358 550 l 25
 255 100 l 17
 459 100 l 5
 480 190 l 5
EndSplineSet
EndChar

StartChar: E
Encoding: 69 69 3
Width: 583
VWidth: 0
Flags: MW
HStem: 0 100<69 162 255 468> 300 100<324 431> 550 100<196 265 358 572>
DStem2: 162 100 255 100 0.223119 0.974791<20.7501 225.972 328.583 461.637> 468 100 582 190 0.225608 0.974218<0 92.4174 390.651 461.861>
LayerCount: 2
Fore
SplineSet
196 650 m 1
 688 650 l 1
 645 460 l 1
 552 460 l 1
 572 550 l 1
 358 550 l 1
 324 400 l 1
 454 400 l 1
 431 300 l 1
 301 300 l 1
 255 100 l 1
 468 100 l 5
 489 190 l 5
 582 190 l 5
 538 0 l 5
 46 0 l 1
 69 100 l 1
 162 100 l 1
 265 550 l 1
 172 550 l 1
 196 650 l 1
EndSplineSet
EndChar

StartChar: F
Encoding: 70 70 4
Width: 583
VWidth: 0
Flags: MW
HStem: 0 100<69 162 255 324> 300 100<324 431> 550 100<196 265 358 572>
DStem2: 162 100 255 100 0.223119 0.974791<20.7501 225.972 328.583 461.637> 551 458 644 458 0.225608 0.974218<20.9816 94.3658>
LayerCount: 2
Fore
SplineSet
324 0 m 1
 46 0 l 1
 69 100 l 1
 162 100 l 1
 265 550 l 1
 172 550 l 1
 196 650 l 1
 688 648 l 5
 644 458 l 5
 551 458 l 5
 572 550 l 5
 358 550 l 1
 324 400 l 1
 454 400 l 1
 431 300 l 1
 301 300 l 1
 255 100 l 1
 348 100 l 1
 324 0 l 1
EndSplineSet
EndChar

StartChar: J
Encoding: 74 74 5
Width: 344
VWidth: 0
Flags: MW
HStem: -210 100<-34 84.6188> 550 100<197 267 360 453>
DStem2: 140 0 233 0 0.224989 0.974361<-86.6926 564.472>
LayerCount: 2
Fore
SplineSet
233 0 m 22
 199 -146 164 -210 -70 -210 c 0
 -34 -110 l 0
 92 -110 122 -80 140 0 c 14
 267 550 l 29
 174 550 l 25
 197 650 l 25
 476 650 l 25
 453 550 l 25
 360 550 l 29
 233 0 l 22
EndSplineSet
EndChar

StartChar: a
Encoding: 97 97 6
Width: 573
VWidth: 0
Flags: HMW
HStem: -10 100<180.311 307.177> 0 100<479 546> 410 100<263.721 403.552> 480 20G<478.884 572>
DStem2: 425 250 479 100 0.22723 0.973841<-89.8494 112.293 212.492 256.867>
LayerCount: 2
Fore
SplineSet
171 240 m 0xa0
 144 125 177 90 244 90 c 3
 323 90 407 170 425 250 c 2
 445 335 l 1
 425 390 374.089 410 328 410 c 3
 259 410 194 338 171 240 c 0xa0
473 457 m 1
 484 500 l 29
 572 500 l 29
 479 100 l 1
 569 100 l 1
 546 0 l 1
 367 0 l 1x50
 386 80 l 1
 352 24 284 -10 213 -10 c 3
 87 -10 42 67 82 240 c 0
 113 376 220 510 342 510 c 3
 381.965 510 439 505 473 457 c 1
EndSplineSet
EndChar

StartChar: dotlessi
Encoding: 305 305 7
Width: 340
VWidth: 0
Flags: W
HStem: 0 100<69 158 247 314> 400 100<161 227>
VStem: 46 291
DStem2: 134.913 0 223.913 0 0.224951 0.97437<122.651 410.463>
LayerCount: 2
Fore
SplineSet
247 100 m 25
 337 100 l 25
 314 0 l 25
 46 0 l 25
 69 100 l 25
 158 100 l 25
 227 400 l 25
 138 400 l 25
 161 500 l 25
 339 500 l 25
 247 100 l 25
EndSplineSet
EndChar

StartChar: uni0237
Encoding: 567 567 8
Width: 268
VWidth: 0
Flags: W
HStem: -210 100<-35 78.7678> 400 100<160 226>
LayerCount: 2
Fore
SplineSet
223 0 m 18
 189 -146 155 -210 -70 -210 c 4
 -35 -110 l 0
 87 -110 116 -80 134 0 c 10
 226 400 l 25
 137 400 l 25
 160 500 l 25
 338 500 l 25
 223 0 l 18
EndSplineSet
EndChar

StartChar: l
Encoding: 108 108 9
Width: 340
VWidth: 0
Flags: W
HStem: 0 100<69 158 247 314> 600 100<207 273>
DStem2: 134.913 0 223.913 0 0.224951 0.97437<122.651 615.685>
LayerCount: 2
Fore
SplineSet
247 100 m 25
 337 100 l 25
 314 0 l 25
 46 0 l 25
 69 100 l 25
 158 100 l 25
 273 600 l 25
 184 600 l 25
 207 700 l 25
 385 700 l 25
 247 100 l 25
EndSplineSet
EndChar

StartChar: p
Encoding: 112 112 10
Width: 582
VWidth: 0
Flags: MW
HStem: -200 100<13 102 191 258> -10 100<273.065 431.739> 400 100<152 218> 410 100<401.417 496.487>
DStem2: 102 -100 191 -100 0.225998 0.974128<20.1138 153.53 247.984 469.186>
LayerCount: 2
Fore
SplineSet
244 130 m 1xd0
 244 130 287 90 379 90 c 3
 445 90 489 176 506 250 c 28
 523 324 519 410 453 410 c 27
 374 410 290 330 272 250 c 2
 244 130 l 1xd0
221 30 m 1
 191 -100 l 9
 281 -100 l 25
 258 -200 l 25
 -10 -200 l 25
 13 -100 l 25
 102 -100 l 25
 218 400 l 25
 129 400 l 25
 152 500 l 25
 330 500 l 17
 307 400 l 1xe0
 335 458 414 510 485 510 c 3
 611 510 634 378 604 250 c 28
 574 122 492 -10 365 -10 c 3
 266 -10 221 30 221 30 c 1
EndSplineSet
EndChar

StartChar: period
Encoding: 46 46 11
Width: 230
VWidth: 0
Flags: W
HStem: 0 140<94.721 166.373>
VStem: 70 121<24.5172 114.516>
LayerCount: 2
Fore
SplineSet
140 140 m 27
 175.372 140 198.411 99.5868 191 65 c 24
 182.514 25.3955 150.504 0 110 0 c 27
 80.2344 0 63.7633 35.8956 70 65 c 24
 78.3838 104.122 99.9893 140 140 140 c 27
EndSplineSet
EndChar

StartChar: b
Encoding: 98 98 14
Width: 555
VWidth: 0
Flags: W
HStem: -10 100<213.02 405.564> 410 100<373.917 468.988> 600 100<171 237>
LayerCount: 2
Fore
SplineSet
212 110 m 5
 212 110 242 90 334 90 c 7
 429 90 461 172 479 250 c 28
 496 324 492 410 426 410 c 31
 347 410 263 330 245 250 c 6
 212 110 l 5
107 40 m 13
 237 600 l 29
 148 600 l 29
 171 700 l 29
 349 700 l 21
 279 400 l 5
 307 458 386 510 457 510 c 7
 583 510 607 378 577 250 c 28
 546 115 473 -10 311 -10 c 7
 189 -10 107 40 107 40 c 13
EndSplineSet
EndChar

StartChar: o
Encoding: 111 111 15
Width: 518
VWidth: 0
Flags: W
HStem: -10 100<216.48 352.424> 410 100<282.81 422.526>
LayerCount: 2
Fore
SplineSet
354 410 m 3
 266 410 202 336 182 250 c 24
 162 164 201 90 280 90 c 3
 366 90 432 164 452 250 c 24
 472 336 446 410 354 410 c 3
257 -10 m 3
 130 -10 51 107 84 250 c 24
 117 393 252 510 377 510 c 3
 500 510 583 393 550 250 c 24
 517 107 382 -10 257 -10 c 3
EndSplineSet
EndChar

StartChar: r
Encoding: 114 114 16
Width: 511
VWidth: 0
Flags: MW
HStem: 0 100<69 158 255 322> 400 100<161 227> 410 100<409.81 552.568>
DStem2: 158 100 255 100 0.224148 0.974555<21.7423 261.786>
LayerCount: 2
Fore
SplineSet
579 370 m 1xa0
 529 408 514 410 462 410 c 3xa0
 394 410 308 330 290 250 c 2
 255 100 l 9
 345 100 l 25
 322 0 l 25
 46 0 l 25
 69 100 l 25
 158 100 l 25
 227 400 l 25
 138 400 l 25
 161 500 l 25
 339 500 l 17
 316 400 l 1xc0
 344 458 423 510 494 510 c 3
 532 510 577 504 602 470 c 1
 579 370 l 1xa0
EndSplineSet
EndChar

StartChar: e
Encoding: 101 101 17
Width: 476
VWidth: 0
Flags: W
HStem: -10 100<198.103 378.612> 230 90<206 418> 410 100<269.294 390.497>
LayerCount: 2
Fore
SplineSet
170 230 m 5
 150 140 190 90 272 90 c 7
 385 90 447 132 466 150 c 5
 443 50 l 5
 425 33 368 -10 258 -10 c 7
 100 -10 52 107 85 250 c 4
 118 393 235 510 361 510 c 7
 484 510 542 403 502 230 c 5
 170 230 l 5
418 320 m 5
 409 367 398 410 337 410 c 7
 278 410 237 367 206 320 c 5
 418 320 l 5
EndSplineSet
EndChar

StartChar: n
Encoding: 110 110 18
Width: 653
VWidth: 0
Flags: W
HStem: 0 100<560 626> 400 100<152 218> 410 100<389.331 490.63>
DStem2: 125 0 223 0 0.224951 0.97437<22.0452 362.61> 439 0 536.913 0 0.224951 0.97437<124.656 374.221>
LayerCount: 2
Fore
SplineSet
439 0 m 25xa0
 497 250 l 2
 524 365 503 410 435 410 c 27xa0
 348 410 287 280 269 200 c 2
 223 0 l 13
 125 0 l 29
 218 400 l 25
 129 400 l 25
 152 500 l 25
 330 500 l 17
 307 400 l 1xc0
 335 458 396 510 467 510 c 3
 593 510 635 423 595 250 c 10
 560 100 l 9
 649 100 l 25
 626 0 l 25
 439 0 l 25xa0
EndSplineSet
EndChar

StartChar: h
Encoding: 104 104 19
Width: 645
VWidth: 0
Flags: W
HStem: 0 100<69 158 247 304 382 463 552 618> 410 100<392.613 490.58> 600 100<207 273>
DStem2: 134.913 0 223.913 0 0.224951 0.97437<122.651 379.265 430.484 615.685> 439.913 0 528.913 0 0.224951 0.97437<122.651 372.207>
LayerCount: 2
Fore
SplineSet
552 100 m 9
 642 100 l 25
 618 0 l 25
 358 0 l 25
 382 100 l 25
 463 100 l 25
 497 250 l 2
 524 365 503 410 435 410 c 27
 363 410 299 330 281 250 c 2
 247 100 l 9
 328 100 l 25
 304 0 l 25
 46 0 l 25
 69 100 l 25
 158 100 l 25
 273 600 l 25
 184 600 l 25
 207 700 l 25
 385 700 l 17
 316 400 l 1
 344 458 396 510 467 510 c 3
 593 510 626 423 586 250 c 10
 552 100 l 9
EndSplineSet
EndChar

StartChar: M
Encoding: 77 77 20
Width: 807
VWidth: 0
Flags: MW
HStem: 0 100<69 162 255 324 506 599 692 762> 550 100<196 265 796 889>
DStem2: 162 100 255 100 0.223119 0.974791<20.7501 380.974> 487 363 336 451 0.342529 -0.939507<-134.398 0> 599 100 692 100 0.225176 0.974318<20.9413 360.225>
LayerCount: 2
Fore
SplineSet
441 163 m 1
 336 451 l 1
 255 100 l 1
 348 100 l 1
 324 0 l 1
 46 0 l 1
 69 100 l 1
 162 100 l 1
 265 550 l 1
 172 550 l 1
 196 650 l 1
 382 650 l 1
 487 363 l 1
 726 650 l 1
 912 650 l 1
 889 550 l 1
 796 550 l 1
 692 100 l 1
 785 100 l 1
 762 0 l 1
 483 0 l 1
 506 100 l 1
 599 100 l 1
 680 451 l 1
 441 163 l 1
EndSplineSet
EndChar

StartChar: D
Encoding: 68 68 21
Width: 630
VWidth: 0
Flags: MW
HStem: 0 100<69 162 255 392.988> 560 100<198 268 361 472.912>
DStem2: 162 100 255 100 0.22455 0.974463<20.8832 472.055>
LayerCount: 2
Fore
SplineSet
570 300 m 0
 615 493 495 560 361 560 c 0
 255 100 l 3
 385 100 534 143 570 300 c 0
232 0 m 2
 46 0 l 1
 69 100 l 1
 162 100 l 1
 268 560 l 1
 175 560 l 1
 198 660 l 1
 384 660 l 2
 644 660 718 497 673 300 c 0
 637 142 509 0 232 0 c 2
EndSplineSet
EndChar

StartChar: f
Encoding: 102 102 22
Width: 417
VWidth: 0
Flags: W
HStem: -203 100<-61.2298 97.1082> 340 100<146 213 325 437> 610 100<377.892 536.23>
DStem2: 87.5177 -203 176.518 -203 0.224951 0.97437<115.519 557.31 679.942 841.559>
LayerCount: 2
Fore
SplineSet
339 500 m 2
 325 440 l 5
 460 440 l 5
 437 340 l 5
 302 340 l 5
 225 7 l 1
 184 -173 106 -203 15 -203 c 3
 -28 -203 -64 -191 -85 -173 c 1
 -62 -73 l 1
 -35 -93 -13 -103 39 -103 c 3
 92 -103 116 -79 136 7 c 1
 213 340 l 5
 123 340 l 5
 146 440 l 5
 236 440 l 5
 250 500 l 2
 291 680 369 710 460 710 c 3
 503 710 539 698 560 680 c 1
 537 580 l 1
 510 600 488 610 436 610 c 3
 383 610 359 586 339 500 c 2
EndSplineSet
EndChar

StartChar: c
Encoding: 99 99 23
Width: 493
VWidth: 0
Flags: W
HStem: -10 95<231.283 400.794> 415 95<296.768 449.711>
LayerCount: 2
Fore
SplineSet
428 300 m 1
 452 403 l 1
 431 411 405 415 374 415 c 3
 295 415 204 342 183 250 c 24
 162 158 218 85 297 85 c 3
 380 85 429 104 483 150 c 1
 460 50 l 1
 433 25 383 -10 276 -10 c 3
 118 -10 52 108 85 250 c 0
 118 393 238 510 396 510 c 3
 503 510 532 473 551 446 c 1
 517 300 l 1
 428 300 l 1
EndSplineSet
EndChar

StartChar: u
Encoding: 117 117 24
Width: 644
VWidth: 0
Flags: W
HStem: -10 100<273.93 388.258> 0 100<550 617> 400 100<143 209 465 531>
DStem2: 113.974 -10 202.974 -10 0.224951 0.97437<177.771 420.868> 435.974 -10 524.604 -10 0.224951 0.97437<170.682 420.868>
LayerCount: 2
Fore
SplineSet
209 400 m 9xa0
 120 400 l 25
 143 500 l 25
 321 500 l 25
 263 250 l 2
 236 135 264 90 334 90 c 27xa0
 408 90 478 170 496 250 c 2
 531 400 l 9
 442 400 l 29
 465 500 l 29
 643 500 l 25
 550 100 l 25
 640 100 l 25
 617 0 l 25
 438 0 l 17x60
 457 80 l 1
 423 24 373 -10 302 -10 c 3
 177 -10 134 77 174 250 c 10
 209 400 l 9xa0
EndSplineSet
EndChar

StartChar: T
Encoding: 84 84 25
Width: 557
VWidth: 0
Flags: MW
HStem: 0 100<162 255 348 418> 460 190<168 217 573 645> 550 100<238 359 452 573>
DStem2: 124 460 217 460 0.225608 0.974218<20.9816 113.399> 255 100 348 100 0.225176 0.974318<20.9413 461.861> 552 460 645 460 0.225608 0.974218<20.9816 92.4174>
LayerCount: 2
Fore
SplineSet
689 650 m 25xa0
 645 460 l 17
 552 460 l 1xc0
 573 550 l 1
 452 550 l 13
 348 100 l 29
 441 100 l 25
 418 0 l 25
 139 0 l 25
 162 100 l 25
 255 100 l 29
 359 550 l 21
 238 550 l 1xa0
 217 460 l 1
 124 460 l 9
 168 650 l 25xc0
 689 650 l 25xa0
EndSplineSet
EndChar

StartChar: N
Encoding: 78 78 26
Width: 732
VWidth: 0
Flags: MW
HStem: 0 100<69 162 255 324> 550 100<196 265 558 628 721 814>
DStem2: 162 100 255 100 0.223119 0.974791<20.7501 380.974> 382 650 336 451 0.343582 -0.939123<171.081 479.296> 547 200 594 0 0.224989 0.974361<0 359.251>
LayerCount: 2
Fore
SplineSet
382 650 m 25
 547 200 l 29
 628 550 l 29
 535 550 l 25
 558 650 l 25
 837 650 l 25
 814 550 l 25
 721 550 l 29
 594 0 l 29
 501 0 l 25
 336 451 l 25
 255 100 l 25
 348 100 l 25
 324 0 l 25
 46 0 l 25
 69 100 l 25
 162 100 l 25
 265 550 l 25
 172 550 l 25
 196 650 l 25
 382 650 l 25
EndSplineSet
EndChar

StartChar: g
Encoding: 103 103 27
Width: 512
VWidth: 0
Flags: W
HStem: -210 100<89.914 316.917> -10 100<190.311 317.177> 410 100<272.474 420.344>
DStem2: 328.518 -210 417.518 -210 0.224951 0.97437<139.252 297.748 382.365 586.565>
LayerCount: 2
Fore
SplineSet
377 0 m 10
 396 80 l 1
 362 24 294 -10 223 -10 c 3
 97 -10 52 67 92 240 c 0
 123 376 222 510 369 510 c 3
 428 510 531 492 556 390 c 1
 466 0 l 2
 422 -192 265 -210 203 -210 c 3
 113 -210 61 -188 24 -170 c 9
 47 -70 l 1
 93 -98 186 -110 235 -110 c 0
 296 -110 359 -80 377 0 c 10
181 240 m 0
 154 125 187 90 254 90 c 3
 333 90 417 170 435 250 c 2
 455 335 l 1
 435 390 404 410 346 410 c 3
 260 410 204 338 181 240 c 0
EndSplineSet
EndChar

StartChar: d
Encoding: 100 100 28
Width: 582
VWidth: 0
Flags: MW
HStem: -10 100<192.546 316.59> 0 100<488 555> 410 100<268.289 413.414> 600 100<449 515>
DStem2: 434 250 488 100 0.22569 0.974199<-89.7483 112.375 212.492 359.251>
LayerCount: 2
Fore
SplineSet
181 240 m 0xb0
 154 125 187 90 254 90 c 3
 333 90 416 170 434 250 c 6
 454 335 l 5
 434 390 386 410 328 410 c 3
 259 410 204 338 181 240 c 0xb0
482 457 m 1
 515 600 l 1
 426 600 l 1
 449 700 l 1
 627 700 l 5
 488 100 l 5
 578 100 l 1
 555 0 l 1
 376 0 l 1x70
 395 80 l 1
 361 24 293 -10 222 -10 c 3
 97 -10 52 67 92 240 c 0
 123 376 229 510 351 510 c 3
 410 510 448 505 482 457 c 1
EndSplineSet
EndChar

StartChar: q
Encoding: 113 113 29
Width: 565
VWidth: 0
Flags: MW
HStem: -210 100<262 352 441 508> -10 100<190.311 317.177> 410 100<272.474 420.344>
DStem2: 355 -100 444 -100 0.222825 0.974859<19.8314 184.61 273.062 473.473>
LayerCount: 2
Fore
SplineSet
181 240 m 0
 154 125 187 90 254 90 c 3
 333 90 417 170 435 250 c 2
 455 335 l 5
 435 390 404 410 346 410 c 3
 260 410 204 338 181 240 c 0
556 390 m 5
 444 -100 l 5
 534 -100 l 1
 511 -200 l 9
 242 -200 l 25
 265 -100 l 25
 355 -100 l 29
 396 80 l 1
 362 24 294 -10 223 -10 c 3
 97 -10 52 67 92 240 c 0
 123 376 222 510 369 510 c 3
 428 510 531 492 556 390 c 5
EndSplineSet
EndChar

StartChar: U
Encoding: 85 85 30
Width: 687
VWidth: 0
Flags: MW
HStem: -10 100<295.891 444.2> 550 100<168 238 331 424 540 610 703 796>
DStem2: 169 250 262 250 0.224148 0.974555<-68.5529 307.833> 541 250 634 250 0.224148 0.974555<-99.6947 307.833>
LayerCount: 2
Fore
SplineSet
819 650 m 9
 796 550 l 25
 703 550 l 29
 634 250 l 22
 594 76 488 -10 341 -10 c 3
 194 -10 129 77 169 250 c 10
 238 550 l 9
 145 550 l 25
 168 650 l 17
 447 650 l 9
 424 550 l 25
 331 550 l 25
 262 250 l 2
 235 135 299 90 364 90 c 3
 437 90 515 136 541 250 c 6
 610 550 l 13
 517 550 l 25
 540 650 l 17
 819 650 l 9
EndSplineSet
EndChar

StartChar: P
Encoding: 80 80 31
Width: 611
VWidth: 0
Flags: MW
HStem: 0 100<69 162 255 324> 220 100<305 509.84> 560 100<198 268 361 541.774>
DStem2: 162 100 255 100 0.22455 0.974463<20.8832 143.882 246.492 472.055>
LayerCount: 2
Fore
SplineSet
361 560 m 5
 305 320 l 1
 426 320 l 2
 513 320 559 371 575 440 c 24
 594 524 541 560 435 560 c 2
 361 560 l 5
458 660 m 18
 685 660 702 548 677 440 c 0
 647 312 544 220 412 220 c 2
 282 220 l 1
 255 100 l 13
 348 100 l 25
 324 0 l 25
 46 0 l 25
 69 100 l 25
 162 100 l 29
 268 560 l 29
 175 560 l 25
 198 660 l 25
 458 660 l 18
EndSplineSet
EndChar

StartChar: z
Encoding: 122 122 32
Width: 484
VWidth: 0
Flags: MW
HStem: 0 100<194 374> 400 100<227 407>
DStem2: 69 100 194 100 0.747897 0.663814<93.4872 451.934> 115 300 204 300 0.224148 0.974555<19.9491 122.56> 374 100 486 200 0.224148 0.974555<0 102.611>
LayerCount: 2
Fore
SplineSet
397 200 m 1
 486 200 l 9
 440 0 l 25
 46 0 l 25
 69 100 l 25
 407 400 l 17
 227 400 l 1
 204 300 l 1
 115 300 l 9
 161 500 l 25
 555 500 l 25
 532 400 l 25
 194 100 l 17
 374 100 l 1
 397 200 l 1
EndSplineSet
EndChar

StartChar: m
Encoding: 109 109 33
Width: 931
VWidth: 0
Flags: W
HStem: 0 100<838 904> 400 100<152 218> 410 100<383.089 478.552 687.404 772.936>
DStem2: 125 0 223 0 0.224951 0.97437<22.0452 365.839> 421 0 519 0 0.224951 0.97437<22.0452 365.839> 717 0 814.913 0 0.224951 0.97437<124.656 380.742>
LayerCount: 2
Fore
SplineSet
125 0 m 25xa0
 218 400 l 25
 129 400 l 25
 152 500 l 25
 330 500 l 17
 307 400 l 1xc0
 335 458 387 510 458 510 c 3
 549 510 578 461 582 370 c 1
 610 428 683 510 754 510 c 3
 879 510 913 423 873 250 c 10
 838 100 l 9
 927 100 l 25
 904 0 l 25
 717 0 l 25
 775 250 l 2
 802 365 788 410 722 410 c 27
 621 410 572 230 554 150 c 10
 519 0 l 9
 421 0 l 25
 479 250 l 2
 506 365 492 410 426 410 c 27
 325 410 276 230 258 150 c 2
 223 0 l 9
 125 0 l 25xa0
EndSplineSet
EndChar

StartChar: Z
Encoding: 90 90 34
Width: 574
VWidth: 0
Flags: MW
HStem: 0 100<199 459> 550 100<265 526>
DStem2: 69 100 199 100 0.712543 0.701629<92.6306 641.365> 149 450 242 450 0.228768 0.973481<21.2754 123.885> 459 100 575 200 0.224148 0.974555<0 102.611>
LayerCount: 2
Fore
SplineSet
482 200 m 5
 575 200 l 13
 529 0 l 29
 46 0 l 25
 69 100 l 25
 526 550 l 17
 265 550 l 1
 242 450 l 1
 149 450 l 9
 196 650 l 25
 679 650 l 25
 656 550 l 25
 199 100 l 17
 459 100 l 5
 482 200 l 5
EndSplineSet
EndChar

StartChar: s
Encoding: 115 115 36
Width: 475
VWidth: 0
Flags: W
HStem: -10 100<133.035 353.044> 415 95<253.001 422.688>
LayerCount: 2
Fore
SplineSet
87 140 m 17
 115 113 171 90 254 90 c 3
 333 90 356 102 362 130 c 0
 369 160 357 177 286 190 c 0
 166 212 92 243 117 350 c 0
 137 438 211 510 369 510 c 3
 452 510 505 473 524 446 c 1
 497 330 l 1
 408 330 l 1
 424 398 l 1
 403 406 378 415 347 415 c 3
 268 415 234 393 224 350 c 0
 214 308 246 305 309 290 c 0
 368 276 499 258 469 130 c 0
 450 48 389 -10 231 -10 c 3
 168 -10 90 8 63 40 c 9
 87 140 l 17
EndSplineSet
EndChar

StartChar: A
Encoding: 65 65 37
Width: 687
VWidth: 0
Flags: MW
HStem: 0 100<41 125 237 297 413 497 609 669> 230 100<359 480> 630 20G<349.4 552.145>
DStem2: 125 100 237 100 0.494474 0.869192<55.3811 202.495 315.621 517.722> 550 650 466 530 0.106661 -0.994295<110.356 310.708 410.991 523.54>
LayerCount: 2
Fore
SplineSet
550 650 m 1
 609 100 l 1
 692 100 l 1
 669 0 l 1
 390 0 l 1
 413 100 l 1
 497 100 l 1
 488 230 l 1
 306 230 l 1
 282 185 258 140 237 100 c 1
 320 100 l 1
 297 0 l 1
 18 0 l 1
 41 100 l 1
 125 100 l 5
 381 550 l 5
 331 550 l 1
 354 650 l 1
 550 650 l 1
359 330 m 5
 480 330 l 1
 466 530 l 5
 359 330 l 5
EndSplineSet
EndChar

StartChar: t
Encoding: 116 116 38
Width: 414
VWidth: 0
Flags: MW
HStem: -10 100<209.922 347.557> 400 100<260 426> 630 20G<201.35 295>
DStem2: 113 250 202 250 0.22646 0.974021<-95.268 174.184 276.795 410.669>
LayerCount: 2
Fore
SplineSet
251 -10 m 3
 100 -10 80 108 113 250 c 6
 206 650 l 5
 295 650 l 5
 260 500 l 1
 449 500 l 1
 426 400 l 1
 237 400 l 1
 202 250 l 6
 175 134 196 90 273 90 c 3
 354 90 403 132 422 150 c 1
 399 50 l 1
 381 33 340 -10 251 -10 c 3
EndSplineSet
EndChar

StartChar: O
Encoding: 79 79 40
Width: 649
VWidth: 0
Flags: W
HStem: -10 100<264.014 441.911> 560 100<364.241 533.912>
LayerCount: 2
Fore
SplineSet
454 560 m 3
 363 560 243 494 203 320 c 0
 170 176 237 90 346 90 c 3
 461 90 560 172 594 320 c 0
 633 490 549 560 454 560 c 3
323 -10 m 3
 197 -10 42 66 101 320 c 0
 161 582 347 660 477 660 c 3
 604 660 756 578 696 320 c 0
 636 58 452 -10 323 -10 c 3
EndSplineSet
EndChar

StartChar: v
Encoding: 118 118 41
Width: 612
VWidth: 0
Flags: MW
HStem: 0 21G<258 363.3> 400 100<143 201 300 372 449 498 597 678>
DStem2: 300 400 201 400 0.14834 -0.988936<0 281.946> 334 120 351 0 0.52386 0.851804<0 324.418>
LayerCount: 2
Fore
SplineSet
334 120 m 25
 498 400 l 9
 426 400 l 25
 449 500 l 17
 701 500 l 9
 678 400 l 25
 597 400 l 25
 351 0 l 25
 261 0 l 25
 201 400 l 9
 120 400 l 25
 143 500 l 17
 395 500 l 9
 372 400 l 25
 300 400 l 25
 334 120 l 25
EndSplineSet
EndChar

StartChar: V
Encoding: 86 86 42
Width: 687
VWidth: 0
Flags: HMW
HStem: 0 21G<285.855 411.345> 550 100<168 229 340 424 540 601 712 796>
VStem: 229 111<484.746 550>
DStem2: 340 550 229 550 0.106661 -0.994295<0 410.968> 371 140 400 0 0.493412 0.869796<0 470.101>
LayerCount: 2
Fore
SplineSet
371 140 m 29
 601 550 l 9
 517 550 l 25
 540 650 l 17
 819 650 l 9
 796 550 l 25
 712 550 l 25
 400 0 l 25
 288 0 l 29
 229 550 l 13
 145 550 l 25
 168 650 l 17
 447 650 l 9
 424 550 l 25
 340 550 l 29
 371 140 l 29
EndSplineSet
EndChar

StartChar: Y
Encoding: 89 89 43
Width: 687
VWidth: 0
Flags: MW
HStem: 0 100<227 320 413 483> 550 100<168 229 340 424 540 601 712 796>
DStem2: 340 550 229 550 0.423771 -0.905769<0 208.964> 320 100 413 100 0.229039 0.973417<21.3007 174.642> 427 360 453 270 0.679042 0.734099<0 257.632>
LayerCount: 2
Fore
SplineSet
360 270 m 25
 229 550 l 9
 145 550 l 25
 168 650 l 17
 447 650 l 9
 424 550 l 25
 340 550 l 25
 427 360 l 25
 601 550 l 9
 517 550 l 25
 540 650 l 17
 819 650 l 9
 796 550 l 25
 712 550 l 25
 453 270 l 25
 413 100 l 25
 506 100 l 25
 483 0 l 25
 204 0 l 25
 227 100 l 25
 320 100 l 25
 360 270 l 25
EndSplineSet
EndChar

StartChar: X
Encoding: 88 88 44
Width: 707
VWidth: 0
Flags: MW
HStem: 0 100<41 116 247 307 423 507 637 689> 550 100<168 220 350 434 550 611 741 816>
DStem2: 116 100 247 100 0.73994 0.672673<96.9321 319.183 441.879 668.973> 350 550 220 550 0.537724 -0.843121<0 181.768 285.737 463.827>
LayerCount: 2
Fore
SplineSet
494 325 m 25
 637 100 l 25
 712 100 l 25
 689 0 l 17
 400 0 l 9
 423 100 l 25
 507 100 l 17
 411 250 l 25
 247 100 l 29
 330 100 l 25
 307 0 l 17
 18 0 l 9
 41 100 l 25
 116 100 l 21
 364 325 l 25
 220 550 l 9
 145 550 l 25
 168 650 l 17
 457 650 l 9
 434 550 l 25
 350 550 l 25
 445 395 l 25
 611 550 l 13
 527 550 l 25
 550 650 l 17
 839 650 l 9
 816 550 l 25
 741 550 l 29
 494 325 l 25
EndSplineSet
EndChar

StartChar: y
Encoding: 121 121 45
Width: 657
VWidth: 0
Flags: W
HStem: -198 100<126 203 311 346> 400 100<138 183 304 372 494 538 642 727>
DStem2: 304 400 183 400 0.367039 -0.930206<0 242.184> 203 -98 311 -98 0.558156 0.829736<60.2808 199.691 326.171 600.191>
LayerCount: 2
Fore
SplineSet
314 68 m 25
 183 400 l 9
 115 400 l 25
 138 500 l 17
 395 500 l 9
 372 400 l 25
 304 400 l 25
 386 172 l 25
 538 400 l 9
 471 400 l 25
 494 500 l 17
 750 500 l 13
 727 400 l 29
 642 400 l 25
 311 -98 l 9
 369 -98 l 25
 346 -198 l 17
 103 -198 l 9
 126 -98 l 25
 203 -98 l 25
 314 68 l 25
EndSplineSet
EndChar

StartChar: C
Encoding: 67 67 46
Width: 602
VWidth: 0
Flags: MW
HStem: -10 100<286.345 493.14> 560 100<376.914 588.41>
DStem2: 566 440 659 440 0.226808 0.97394<21.0931 103.484>
LayerCount: 2
Fore
SplineSet
360 -10 m 3
 474 -10 551 33 569 50 c 1
 592 150 l 1
 572 132 491 90 374 90 c 0
 279 89 185 157 220 310 c 0
 256 465 359 560 463 560 c 3
 540 560 567 546 589 538 c 1
 566 440 l 1
 659 440 l 1
 693 586 l 1
 673 613 609 660 487 660 c 3
 299 660 141 493 99 310 c 0
 54 115 176 -10 360 -10 c 3
EndSplineSet
EndChar

StartChar: R
Encoding: 82 82 47
Width: 695
VWidth: 0
Flags: MW
HStem: 0 100<69 162 255 297 403 468 589 659> 280 100<319 389> 560 100<198 268 361 552.994>
DStem2: 162 100 255 100 0.22455 0.974463<20.8832 205.493 308.104 472.055> 510 280 389 280 0.401886 -0.91569<0 147.945>
CounterMasks: 1 e0
LayerCount: 2
Fore
SplineSet
319 380 m 1
 319 380 354 380 449 380 c 3
 517 380 568 412 582 470 c 0
 598 541 558 560 361 560 c 9
 319 380 l 1
384 660 m 2
 606 660 725 647 684 470 c 0
 661 370 598 301 510 280 c 5
 589 100 l 5
 682 100 l 1
 659 0 l 1
 380 0 l 1
 403 100 l 1
 468 100 l 5
 389 280 l 5
 296 280 l 1
 255 100 l 1
 320 100 l 1
 297 0 l 1
 46 0 l 1
 69 100 l 1
 162 100 l 1
 268 560 l 1
 175 560 l 1
 198 660 l 1
 384 660 l 2
EndSplineSet
EndChar

StartChar: G
Encoding: 71 71 48
Width: 602
VWidth: 0
Flags: MW
HStem: -10 100<268.726 488.7> 220 100<436 515> 560 100<375.082 588.41>
DStem2: 490 110 569 50 0.223805 0.974634<-11.6132 112.805 359.452 442.189>
LayerCount: 2
Fore
SplineSet
569 50 m 1
 541 25 454 -10 332 -10 c 3
 148 -10 54 115 99 310 c 0
 141 493 299 660 487 660 c 3
 609 660 673 613 693 586 c 1
 659 440 l 1
 566 440 l 1
 589 538 l 1
 567 546 540 560 463 560 c 3
 359 560 237 465 201 310 c 0
 166 157 260 90 355 90 c 3
 396 90 445 96 490 110 c 1
 515 220 l 1
 413 220 l 1
 436 320 l 1
 631 320 l 1
 569 50 l 1
EndSplineSet
EndChar

StartChar: comma
Encoding: 44 44 49
Width: 233
VWidth: 0
Flags: W
HStem: -140 270
VStem: 13 187
LayerCount: 2
Fore
SplineSet
78 50 m 21
 97 130 l 29
 200 130 l 29
 181 50 l 29
 88 -140 l 25
 13 -140 l 25
 78 50 l 21
EndSplineSet
EndChar

StartChar: K
Encoding: 75 75 50
Width: 659
VWidth: 0
Flags: MW
HStem: 0 100<69 162 255 306 385 441 571 623> 550 100<196 265 358 433 512 544 675 750>
DStem2: 162 100 255 100 0.223119 0.974791<20.7501 195.166 323.486 461.637> 372 325 294 270 0.662502 -0.74906<0 214.251> 323 395 372 325 0.802853 0.596178<0 261.809>
LayerCount: 2
Fore
SplineSet
323 395 m 9
 534 550 l 9
 489 550 l 25
 512 650 l 17
 773 650 l 9
 750 550 l 25
 675 550 l 25
 372 325 l 25
 571 100 l 25
 646 100 l 25
 623 0 l 17
 362 0 l 9
 385 100 l 25
 441 100 l 17
 294 270 l 17
 255 100 l 9
 329 100 l 25
 306 0 l 25
 46 0 l 25
 69 100 l 25
 162 100 l 25
 265 550 l 25
 172 550 l 25
 196 650 l 25
 456 650 l 25
 433 550 l 25
 358 550 l 17
 323 395 l 9
EndSplineSet
EndChar

StartChar: S
Encoding: 83 83 51
Width: 500
VWidth: 0
Flags: W
HStem: -10 100<150.147 342.348> 560 100<312.012 477.376>
LayerCount: 2
Fore
SplineSet
84 153 m 17
 108 116 202 90 262 90 c 3
 344 90 386 142 392 170 c 0
 403 216 385 240 322 270 c 4
 207 325 113 373 138 480 c 0
 158 568 267 660 431 660 c 3
 542 660 563 623 583 596 c 1
 550 450 l 1
 457 450 l 1
 479 548 l 1
 457 556 440 560 408 560 c 3
 326 560 269 523 259 480 c 0
 249 438 287 410 348 380 c 0
 403 353 545 310 513 170 c 0
 494 88 403 -10 239 -10 c 3
 128 -10 72 14 44 42 c 9
 84 153 l 17
EndSplineSet
EndChar

StartChar: B
Encoding: 66 66 52
Width: 611
VWidth: 0
Flags: MW
HStem: 0 100<69 162 255 454.383> 290 100<322 483.489> 560 100<198 268 361 504.322>
DStem2: 162 100 255 100 0.22455 0.974463<20.8832 215.687 318.522 472.055>
LayerCount: 2
Fore
SplineSet
322 390 m 5
 415 390 l 2
 483 390 528 398 540 450 c 24
 562 546 484 559 361 560 c 13
 322 390 l 5
564 338 m 1
 613 317 632 244 617 180 c 0
 577 5 388 0 232 0 c 2
 46 0 l 1
 69 100 l 1
 162 100 l 5
 268 560 l 5
 175 560 l 1
 198 660 l 1
 384 660 l 2
 514 660 687 647 642 450 c 0
 630 399 591 346 564 338 c 1
391 290 m 2
 298 290 l 1
 255 100 l 1
 419 100 497 104 517 190 c 0
 534 264 459 290 391 290 c 2
EndSplineSet
EndChar

StartChar: zero
Encoding: 48 48 53
Width: 575
VWidth: 0
Flags: W
HStem: -10 100<248.676 383.244> 560 100<347.325 481.284>
LayerCount: 2
Fore
SplineSet
417 560 m 7
 326 560 244 454 213 320 c 4
 181 180 226 90 308 90 c 7
 397 90 476 174 510 320 c 4
 543 464 512 560 417 560 c 7
285 -10 m 7
 153 -10 55 82 110 320 c 4
 165 558 310 660 440 660 c 7
 567 660 669 566 612 320 c 4
 557 80 414 -10 285 -10 c 7
EndSplineSet
EndChar

StartChar: one
Encoding: 49 49 54
Width: 444
VWidth: 0
Flags: MW
HStem: 0 100<87 208 301 399> 550 100<205 312>
DStem2: 208 100 301 100 0.224989 0.974361<20.924 461.861>
LayerCount: 2
Fore
SplineSet
301 100 m 29
 422 100 l 25
 399 0 l 25
 64 0 l 25
 87 100 l 25
 208 100 l 29
 312 550 l 29
 182 550 l 25
 205 650 l 25
 428 650 l 29
 301 100 l 29
EndSplineSet
EndChar

StartChar: exclam
Encoding: 33 33 55
Width: 300
VWidth: 0
Flags: W
HStem: 0 140<124.721 196.373> 680 20G<241.167 357>
VStem: 100 121<24.5172 114.516>
LayerCount: 2
Fore
SplineSet
153 220 m 29
 245 700 l 29
 357 700 l 29
 227 220 l 29
 153 220 l 29
EndSplineSet
Refer: 11 46 N 1 0 0 1 30 0 2
EndChar

StartChar: hyphen
Encoding: 45 45 57
Width: 407
VWidth: 0
Flags: W
HStem: 200 100<115 408>
LayerCount: 2
Fore
SplineSet
92 200 m 5
 115 300 l 5
 431 300 l 5
 408 200 l 5
 92 200 l 5
EndSplineSet
EndChar

StartChar: w
Encoding: 119 119 58
Width: 882
VWidth: 0
Flags: MW
HStem: 0 21G<258 362.583 528.683 641.85> 400 100<143 201 300 363 449 498 570 651 728 768 867 948>
DStem2: 300 400 201 400 0.14834 -0.988936<0 281.946> 334 120 351 0 0.505403 0.862883<0 204.343> 570 400 501 259 0.151792 -0.988412<128.893 283.283> 613 120 630 0 0.509743 0.860326<0 319.902>
LayerCount: 2
Fore
SplineSet
498 400 m 1
 426 400 l 1
 449 500 l 1
 674 500 l 1
 651 400 l 1
 570 400 l 1
 613 120 l 1
 768 400 l 1
 705 400 l 1
 728 500 l 1
 971 500 l 1
 948 400 l 1
 867 400 l 1
 630 0 l 1
 531 0 l 1
 501 259 l 1
 351 0 l 1
 261 0 l 1
 201 400 l 1
 120 400 l 1
 143 500 l 1
 386 500 l 1
 363 400 l 1
 300 400 l 1
 334 120 l 1
 498 400 l 1
EndSplineSet
EndChar

StartChar: dollar
Encoding: 36 36 59
Width: 540
VWidth: 0
Flags: MW
HStem: -10 100<150.147 342.348> 560 100<312.012 477.376>
DStem2: 184 -90 277 -90 0.224259 0.97453<20.8561 851.693>
LayerCount: 2
Fore
SplineSet
184 -90 m 29
 375 740 l 29
 468 740 l 29
 277 -90 l 29
 184 -90 l 29
EndSplineSet
Refer: 51 83 S 1 0 0 1 0 0 2
EndChar

StartChar: bar
Encoding: 124 124 60
Width: 256
VWidth: 0
Flags: W
VStem: 31 310
LayerCount: 2
Fore
SplineSet
31 -220 m 29
 248 720 l 29
 341 720 l 25
 124 -220 l 25
 31 -220 l 29
EndSplineSet
EndChar

StartChar: parenleft
Encoding: 40 40 61
Width: 369
VWidth: 0
Flags: HW
LayerCount: 2
Fore
SplineSet
291 -220 m 21
 107 -220 111 85 156 280 c 0
 198 463 320 720 508 720 c 13
 485 620 l 21
 381 620 294 435 258 280 c 0
 223 127 219 -120 314 -120 c 13
 291 -220 l 21
EndSplineSet
EndChar

StartChar: parenright
Encoding: 41 41 62
Width: 369
VWidth: 0
Flags: HMW
HStem: -220 100<0 49.9352>
LayerCount: 2
Fore
SplineSet
-23 -220 m 17
 161 -220 298 85 343 280 c 4
 385 463 382 720 194 720 c 9
 170 620 l 17
 274 620 277 435 241 280 c 4
 206 127 95 -120 -0 -120 c 9
 -23 -220 l 17
EndSplineSet
EndChar

StartChar: bracketleft
Encoding: 91 91 63
Width: 341
VWidth: 0
Flags: MW
HStem: -220 100<138 264> 620 100<309 458>
DStem2: 22 -220 138 -120 0.224935 0.974374<123.53 883.03>
LayerCount: 2
Fore
SplineSet
287 -120 m 1
 264 -220 l 1
 22 -220 l 5
 239 720 l 5
 481 720 l 1
 458 620 l 1
 309 620 l 5
 138 -120 l 5
 287 -120 l 1
EndSplineSet
EndChar

StartChar: bracketright
Encoding: 93 93 64
Width: 341
VWidth: 0
Flags: MW
HStem: -220 100<0 148> 620 100<194 319>
DStem2: 148 -120 218 -220 0.224935 0.974374<0 759.5>
LayerCount: 2
Fore
SplineSet
-0 -120 m 1
 148 -120 l 5
 319 620 l 5
 170 620 l 1
 194 720 l 1
 435 720 l 5
 218 -220 l 5
 -23 -220 l 1
 -0 -120 l 1
EndSplineSet
EndChar

StartChar: slash
Encoding: 47 47 65
Width: 333
VWidth: 0
Flags: MW
DStem2: 50 -20 143 -20 0.406253 0.913761<37.7815 809.84>
LayerCount: 2
Fore
SplineSet
50 -20 m 29
 379 720 l 29
 472 720 l 29
 143 -20 l 29
 50 -20 l 29
EndSplineSet
EndChar

StartChar: backslash
Encoding: 92 92 66
Width: 332
VWidth: 0
Flags: MW
DStem2: 265 720 172 720 0.0633858 -0.997989<0 735.596>
LayerCount: 2
Fore
SplineSet
312 -20 m 29
 265 720 l 29
 172 720 l 29
 219 -20 l 29
 312 -20 l 29
EndSplineSet
EndChar

StartChar: greater
Encoding: 62 62 67
Width: 388
VWidth: 0
Flags: MW
DStem2: 34 30 155 30 0.739263 0.673417<89.4508 334.117> 259 480 138 480 0.53639 -0.84397<0 201.694>
LayerCount: 2
Fore
SplineSet
34 30 m 29
 281 255 l 29
 138 480 l 25
 259 480 l 17
 402 255 l 29
 155 30 l 13
 34 30 l 29
EndSplineSet
EndChar

StartChar: plus
Encoding: 43 43 68
Width: 500
VWidth: 0
Flags: MW
HStem: 200 100<115 250 366 501>
DStem2: 211 30 304 30 0.223603 0.97468<20.7951 174.416 297.822 451.443>
LayerCount: 2
Fore
SplineSet
524 300 m 1
 501 200 l 1
 343 200 l 1
 304 30 l 1
 211 30 l 1
 250 200 l 1
 92 200 l 1
 115 300 l 1
 273 300 l 5
 312 470 l 5
 405 470 l 5
 366 300 l 5
 524 300 l 1
EndSplineSet
EndChar

StartChar: equal
Encoding: 61 61 69
Width: 444
VWidth: 0
Flags: W
HStem: 100 100<92 422> 300 100<138 468>
LayerCount: 2
Fore
SplineSet
115 300 m 5
 138 400 l 5
 491 400 l 5
 468 300 l 5
 115 300 l 5
69 100 m 5
 92 200 l 5
 445 200 l 5
 422 100 l 5
 69 100 l 5
EndSplineSet
EndChar

StartChar: underscore
Encoding: 95 95 70
Width: 463
VWidth: 0
Flags: W
HStem: -140 80<32 385>
LayerCount: 2
Fore
SplineSet
13 -140 m 1
 32 -60 l 1
 404 -60 l 1
 385 -140 l 1
 13 -140 l 1
EndSplineSet
EndChar

StartChar: less
Encoding: 60 60 71
Width: 389
VWidth: 0
Flags: MW
DStem2: 225 255 104 255 0.539054 -0.842271<0 201.909> 104 255 225 255 0.740615 0.671929<89.6145 334.857>
LayerCount: 2
Fore
SplineSet
369 30 m 29
 225 255 l 29
 473 480 l 25
 352 480 l 17
 104 255 l 29
 248 30 l 13
 369 30 l 29
EndSplineSet
EndChar

StartChar: W
Encoding: 87 87 72
Width: 947
VWidth: 0
Flags: MW
HStem: 0 21G<258.873 382.914 574.879 698.364> 550 100<168 229 340 406 503 554 647 731 819 861 973 1057>
VStem: 229 111<425.806 550>
DStem2: 344 140 372 0 0.455876 0.890043<0 274.22> 660 140 688 0 0.460082 0.887877<0 456.506>
LayerCount: 2
Fore
SplineSet
554 550 m 1
 480 550 l 1
 503 650 l 1
 754 650 l 1
 731 550 l 1
 647 550 l 1
 660 140 l 5
 861 550 l 5
 796 550 l 1
 819 650 l 1
 1080 650 l 1
 1057 550 l 1
 973 550 l 5
 688 0 l 5
 576 0 l 1
 557 359 l 1
 372 0 l 1
 260 0 l 1
 229 550 l 1
 145 550 l 1
 168 650 l 1
 429 650 l 1
 406 550 l 1
 340 550 l 1
 344 140 l 1
 554 550 l 1
EndSplineSet
EndChar

StartChar: numbersign
Encoding: 35 35 73
Width: 611
VWidth: 0
Flags: MW
HStem: 90 100<89 155 283 350 479 550> 290 100<173 244 372 439 567 633>
DStem2: 57 -130 141 -130 0.406909 0.913469<34.1803 240.84 384.271 459.749 603.18 809.84> 253 -130 336 -130 0.406909 0.913469<33.7734 240.433 384.271 459.342 602.773 809.84>
LayerCount: 2
Fore
SplineSet
150 290 m 1
 173 390 l 1
 288 390 l 1
 386 610 l 1
 470 610 l 1
 372 390 l 1
 484 390 l 5
 582 610 l 5
 665 610 l 5
 567 390 l 5
 656 390 l 1
 633 290 l 1
 523 290 l 1
 479 190 l 1
 573 190 l 1
 550 90 l 1
 434 90 l 1
 336 -130 l 1
 253 -130 l 1
 350 90 l 1
 239 90 l 1
 141 -130 l 1
 57 -130 l 1
 155 90 l 1
 66 90 l 1
 89 190 l 1
 200 190 l 1
 244 290 l 1
 150 290 l 1
439 290 m 1
 328 290 l 1
 283 190 l 1
 395 190 l 1
 439 290 l 1
EndSplineSet
EndChar

StartChar: quotesingle
Encoding: 39 39 74
Width: 220
VWidth: 0
Flags: W
HStem: 470 230<225 256>
VStem: 182 136
DStem2: 182 470 256 470 0.224951 0.97437<16.6464 233.778>
LayerCount: 2
Fore
SplineSet
182 470 m 25
 225 700 l 25
 318 700 l 25
 256 470 l 25
 182 470 l 25
EndSplineSet
EndChar

StartChar: two
Encoding: 50 50 76
Width: 481
VWidth: 0
Flags: MW
HStem: 0 100<189 436> 560 100<264.945 428.957>
DStem2: 69 100 189 100 0.680029 0.733185<81.6035 252.552>
LayerCount: 2
Fore
SplineSet
440 500 m 4
 452 553 389 560 361 560 c 3
 313 560 289 546 263 538 c 1
 247 470 l 1
 154 470 l 1
 181 586 l 1
 213 613 273 660 384 660 c 3
 548 660 569 575 552 500 c 4
 535 425 189 100 189 100 c 13
 459 100 l 1
 436 0 l 1
 46 0 l 1
 69 100 l 5
 164 190 430 456 440 500 c 4
EndSplineSet
EndChar

StartChar: Q
Encoding: 81 81 77
Width: 700
VWidth: 0
Flags: MW
HStem: -10 100<264.014 441.911> 560 100<364.241 533.912>
DStem2: 444 305 360 220 0.607239 -0.794519<16.526 351.807>
LayerCount: 2
Fore
SplineSet
574 -60 m 21
 360 220 l 29
 444 305 l 29
 657 25 l 29
 574 -60 l 21
EndSplineSet
Refer: 40 79 N 1 0 0 1 0 0 2
EndChar

StartChar: question
Encoding: 63 63 79
Width: 540
VWidth: 0
Flags: W
HStem: 0 140<204.721 276.372> 500 21G<153 250.49> 610 100<268.441 432.078>
VStem: 180 121<24.5172 114.516>
LayerCount: 2
Fore
SplineSet
339 340 m 13
 307 220 l 29
 223 220 l 29
 255 400 l 21
 330 430 447 488 457 530 c 0
 467 573 427 610 345 610 c 3
 313 610 294 606 268 598 c 1
 246 500 l 1
 153 500 l 1
 186 646 l 1
 218 673 258 710 369 710 c 3
 533 710 598 618 578 530 c 0
 560 451 479 395 339 340 c 13
EndSplineSet
Refer: 11 46 N 1 0 0 1 110 0 2
EndChar

StartChar: k
Encoding: 107 107 80
Width: 601
VWidth: 0
Flags: MW
HStem: 0 100<69 158 247 268 328 382 526 556> 480 20G<415.4 627> 600 100<207 273>
DStem2: 158 100 247 100 0.224148 0.974555<19.9491 132.754 240.462 513.055>
LayerCount: 2
Fore
SplineSet
247 100 m 1
 292 100 l 1
 268 0 l 1
 46 0 l 1
 69 100 l 1
 158 100 l 1
 273 600 l 1
 184 600 l 1
 207 700 l 1
 385 700 l 1
 296 315 l 1
 455 400 l 1
 397 400 l 1
 420 500 l 1
 627 500 l 1
 604 400 l 1
 366 265 l 1
 526 100 l 1
 580 100 l 1
 556 0 l 1
 304 0 l 1
 328 100 l 1
 382 100 l 1
 272 210 l 1
 247 100 l 1
EndSplineSet
EndChar

StartChar: asciicircum
Encoding: 94 94 81
Width: 388
VWidth: 0
Flags: MW
DStem2: 184 620 163 530 0.889288 0.457348<0 136.95> 358 710 338 620 0.828198 -0.560435<33.8752 160.59>
LayerCount: 2
Fore
SplineSet
470 530 m 29
 338 620 l 29
 163 530 l 25
 184 620 l 17
 358 710 l 29
 491 620 l 13
 470 530 l 29
EndSplineSet
EndChar

StartChar: x
Encoding: 120 120 82
Width: 536
VWidth: 0
Flags: HMW
HStem: 0 100<59 104 220 241 318 363 478 500> 400 100<152 173 289 333 411 432 548 592>
LayerCount: 2
Fore
SplineSet
369 245 m 29
 478 100 l 29
 523 100 l 25
 500 0 l 17
 295 0 l 9
 318 100 l 25
 363 100 l 21
 307 170 l 29
 220 100 l 25
 264 100 l 25
 241 0 l 17
 36 0 l 9
 59 100 l 25
 104 100 l 17
 280 245 l 25
 173 400 l 9
 129 400 l 25
 152 500 l 17
 357 500 l 9
 333 400 l 25
 289 400 l 25
 341 315 l 25
 432 400 l 9
 387 400 l 25
 411 500 l 17
 615 500 l 9
 592 400 l 25
 548 400 l 25
 369 245 l 29
EndSplineSet
EndChar

StartChar: four
Encoding: 52 52 83
Width: 518
VWidth: 0
Flags: MW
HStem: 0 21G<287 384.727> 110 100<206 313 429 499> 630 20G<421.409 530>
DStem2: 94 210 206 210 0.614809 0.788676<68.8586 390.728> 287 0 380 0 0.223727 0.974652<20.8066 113.029 236.446 482.473>
LayerCount: 2
Fore
SplineSet
396 470 m 5
 206 210 l 5
 336 210 l 1
 396 470 l 5
406 110 m 1
 380 0 l 1
 287 0 l 1
 313 110 l 1
 71 110 l 1
 94 210 l 5
 437 650 l 5
 530 650 l 1
 429 210 l 1
 522 210 l 1
 499 110 l 1
 406 110 l 1
EndSplineSet
EndChar

StartChar: seven
Encoding: 55 55 84
Width: 509
VWidth: 0
Flags: MW
HStem: 0 21G<134 257.582> 550 100<265 484>
DStem2: 134 0 245 0 0.536875 0.843661<59.5932 651.92>
LayerCount: 2
Fore
SplineSet
134 0 m 29
 484 550 l 21
 265 550 l 1
 242 450 l 1
 149 450 l 9
 196 650 l 25
 614 650 l 25
 591 550 l 29
 245 0 l 21
 134 0 l 29
EndSplineSet
EndChar

StartChar: five
Encoding: 53 53 85
Width: 481
VWidth: 0
Flags: MW
HStem: -10 100<167.419 327.187> 340 100<245.969 374.917> 550 100<266 517>
DStem2: 53 74 158 122 0.225469 0.97425<57.8037 119.101>
LayerCount: 2
Fore
SplineSet
115 300 m 5
 196 650 l 5
 540 650 l 1
 517 550 l 1
 266 550 l 29
 233 410 l 21
 255 426 293 440 357 440 c 3
 427 440 525 382 485 210 c 0
 449 54 336 -10 211 -10 c 3
 100 -10 64 39 53 74 c 1
 80 190 l 1
 173 190 l 1
 158 122 l 1
 169 103 202 90 234 90 c 3
 294 90 368 106 392 210 c 0
 411 291 381 340 319 340 c 3
 257 340 228 318 208 300 c 1
 115 300 l 5
EndSplineSet
EndChar

StartChar: three
Encoding: 51 51 86
Width: 481
VWidth: 0
Flags: MW
HStem: -10 100<185.674 325.793> 550 100<275 447>
DStem2: 447 550 426 420 0.692898 0.721036<-108.286 0>
LayerCount: 2
Fore
SplineSet
549 550 m 1
 426 420 l 1
 489 399 525 346 498 230 c 0
 461 70 344 -10 229 -10 c 3
 118 -10 79 41 72 74 c 5
 98 190 l 5
 191 190 l 5
 176 122 l 5
 194 98 220 90 252 90 c 3
 296 90 379 116 405 230 c 0
 423 306 372 345 311 345 c 2
 250 345 l 1
 447 550 l 1
 275 550 l 1
 261 490 l 1
 168 490 l 1
 205 650 l 1
 572 650 l 17
 549 550 l 1
EndSplineSet
EndChar

StartChar: grave
Encoding: 96 96 87
Width: 370
VWidth: 0
Flags: HW
LayerCount: 2
Fore
SplineSet
253 750 m 29
 470 630 l 29
 424 550 l 29
 198 660 l 21
 253 750 l 29
EndSplineSet
EndChar

StartChar: nine
Encoding: 57 57 88
Width: 527
VWidth: 0
Flags: MW
HStem: -10 100<198.7 349.14> 230 100<270.363 414.757> 560 100<307.126 463.571>
DStem2: 424 230 536 270 0.22583 0.974167<-85.094 64.2596 225.834 303.065>
LayerCount: 2
Fore
SplineSet
424 230 m 4
 434 274 455 364 475 450 c 29
 577 450 l 29
 561 380 553 345 536 270 c 4
 500 112 408 -10 255 -10 c 3
 144 -10 105 25 93 54 c 1
 120 170 l 1
 213 170 l 1
 197 102 l 1
 208 93 252 90 278 90 c 3
 337 90 400 126 424 230 c 4
389 560 m 3
 298 560 267 513 252 450 c 24
 237 384 254 330 336 330 c 3
 425 330 460 384 475 450 c 24
 490 513 484 560 389 560 c 3
312 230 m 3
 180 230 120 326 149 450 c 24
 177 571 282 660 412 660 c 3
 539 660 605 571 577 450 c 24
 548 326 441 230 312 230 c 3
EndSplineSet
EndChar

StartChar: six
Encoding: 54 54 89
Width: 518
VWidth: 0
Flags: MW
HStem: -10 100<211.28 356.499> 320 100<247.569 407.655> 560 100<319.86 469.801>
DStem2: 96 220 199 220 0.224148 0.974555<-67.657 23.0872 164.222 313.54>
LayerCount: 2
Fore
SplineSet
245 420 m 4
 235 376 217 298 199 220 c 29
 96 220 l 29
 110 282 116 305 133 380 c 4
 169 538 261 660 414 660 c 3
 525 660 564 625 576 596 c 1
 549 480 l 1
 456 480 l 1
 471 548 l 1
 460 557 417 560 391 560 c 3
 332 560 269 524 245 420 c 4
280 90 m 3
 371 90 406 151 422 220 c 24
 436 281 415 320 333 320 c 3
 244 320 213 281 199 220 c 24
 183 151 185 90 280 90 c 3
356 420 m 3
 488 420 551 339 524 220 c 24
 495 93 387 -10 257 -10 c 3
 130 -10 67 93 96 220 c 24
 123 339 227 420 356 420 c 3
EndSplineSet
EndChar

StartChar: eight
Encoding: 56 56 90
Width: 500
VWidth: 0
Flags: W
HStem: -10 100<202.02 350.629> 300 100<214 450> 560 100<313.462 443.435>
LayerCount: 2
Fore
SplineSet
343 400 m 3
 408 400 442 430 454 480 c 28
 466 530 439 560 380 560 c 7
 323 560 278 522 266 470 c 28
 255 422 278 400 343 400 c 3
403 660 m 7
 535 660 581 588 556 480 c 28
 531 372 450 300 320 300 c 3
 193 300 141 372 166 480 c 28
 191 588 274 660 403 660 c 7
271 90 m 3
 352 90 393 137 408 200 c 24
 422 261 395 300 320 300 c 3
 254 300 199 261 185 200 c 24
 170 137 190 90 271 90 c 3
343 400 m 3
 475 400 537 319 510 200 c 24
 482 79 378 -10 248 -10 c 3
 121 -10 55 79 83 200 c 24
 110 319 214 400 343 400 c 3
EndSplineSet
EndChar

StartChar: asciitilde
Encoding: 126 126 91
Width: 490
VWidth: 0
Flags: HW
LayerCount: 2
Fore
SplineSet
354 165 m 31x80
 409.524 165 492 200 492 200 c 1
 517 310 l 1x40
 517 310 446.376 275 398 275 c 31x80
 335.557 275 316.443 345 254 345 c 27x20
 198.854 345 117 310 117 310 c 1
 92 200 l 1x40
 92 200 161.998 235 210 235 c 27x20
 272.443 235 291.557 165 354 165 c 31x80
EndSplineSet
EndChar

StartChar: braceleft
Encoding: 123 123 92
Width: 370
VWidth: 0
Flags: HW
LayerCount: 2
Fore
SplineSet
257 70 m 0
 231 -43 263 -120 316 -120 c 9
 293 -220 l 3
 178 -220 124 -62 159 90 c 4
 180 182 142 271 101 280 c 5
 150 287 226 378 247 470 c 4
 277 602 399 720 510 720 c 9
 486 620 l 17
 432 620 375 579 354 490 c 0
 326 368 264 291 213 280 c 1
 256 276 287 198 257 70 c 0
EndSplineSet
EndChar

StartChar: braceright
Encoding: 125 125 93
Width: 370
VWidth: 0
Flags: HW
LayerCount: 2
Fore
SplineSet
146 70 m 4
 176 198 242 276 287 280 c 5
 241 291 215 368 243 490 c 4
 264 579 224 620 170 620 c 13
 194 720 l 21
 305 720 370 602 340 470 c 4
 319 378 354 287 399 280 c 5
 354 271 274 182 253 90 c 4
 218 -62 92 -220 -23 -220 c 4
 -0 -120 l 21
 53 -120 120 -43 146 70 c 4
EndSplineSet
EndChar

StartChar: percent
Encoding: 37 37 94
Width: 724
VWidth: 0
Flags: MW
HStem: -20 80<522.052 614.54> 200 80<543.046 635.664> 420 80<252.052 344.444> 640 80<272.652 365.164>
DStem2: 125 -20 227 -20 0.58517 0.81091<59.6874 912.555>
LayerCount: 2
Fore
SplineSet
324 640 m 3
 290 640 252 609 243 570 c 24
 234 531 260 500 292 500 c 3
 329 500 364 531 373 570 c 24
 382 609 361 640 324 640 c 3
273 420 m 3
 200 420 139 484 159 570 c 24
 179 656 264 720 342 720 c 3
 422 720 476 656 456 570 c 24
 436 484 364 420 273 420 c 3
594 200 m 3
 560 200 522 169 513 130 c 24
 504 91 530 60 562 60 c 3
 599 60 634 91 643 130 c 24
 652 169 631 200 594 200 c 3
543 -20 m 3
 470 -20 409 44 429 130 c 24
 449 216 535 280 613 280 c 3
 693 280 747 216 727 130 c 24
 707 44 634 -20 543 -20 c 3
125 -20 m 29
 659 720 l 29
 761 720 l 29
 227 -20 l 29
 125 -20 l 29
EndSplineSet
EndChar

StartChar: asterisk
Encoding: 42 42 95
Width: 500
VWidth: 0
Flags: MW
DStem2: 140 310 192 230 0.768221 0.640184<0 172.338> 219 590 159 490 0.901523 -0.432731<0 116.296> 324 540 426 540 0.225304 0.974288<22.981 164.222> 414 430 331 350 0.595708 -0.803201<14.8124 149.402> 426 540 414 430 0.931777 0.36303<0 114.161>
LayerCount: 2
Fore
SplineSet
361 700 m 1
 463 700 l 1
 426 540 l 1
 554 590 l 1
 568 490 l 1
 414 430 l 1
 503 310 l 1
 415 230 l 1
 331 350 l 5
 192 230 l 5
 140 310 l 5
 284 430 l 5
 159 490 l 1
 219 590 l 1
 324 540 l 1
 361 700 l 1
EndSplineSet
EndChar

StartChar: at
Encoding: 64 64 96
Width: 710
VWidth: 0
Flags: MW
HStem: -190 90<257.396 474.076> -10 95<280 408.641> 0 21G<450.4 557.5> 280 90<379.08 496.423> 420 90<352.516 571.011>
DStem2: 482 155 557 100 0.22723 0.973841<-34.5184 110.045>
LayerCount: 2
Fore
SplineSet
504 250 m 21xd8
 492 266 470 280 445 280 c 3
 396 280 334 242 319 176 c 0
 304 112 325 85 358 85 c 3
 399 85 455 120 482 155 c 13
 504 250 l 21xd8
446 0 m 9xb8
 457 50 l 17
 408 0 370 -10 313 -10 c 3xd8
 247 -10 196 44 225 170 c 0
 251 283 339 370 448 370 c 3
 497 370 554 351 606 310 c 5
 557 100 l 21
 584 102 623 124 643 210 c 0
 686 398 533 420 459 420 c 3
 356 420 205 366 160 170 c 0
 119 -6 227 -100 350 -100 c 3
 456 -100 537 -68 583 -22 c 9
 599 -102 l 17
 539 -152 448 -190 335 -190 c 3
 110 -190 24 -14 67 170 c 0
 109 351 275 510 480 510 c 3
 636 510 781 426 731 210 c 0
 716 145 669 0 446 0 c 9xb8
EndSplineSet
EndChar

StartChar: ampersand
Encoding: 38 38 97
Width: 612
VWidth: 0
Flags: MW
HStem: -12 100<211.196 347.902> -10 21G<490 522.333> 500 21G<459 556.658> 610 100<351.036 479.908>
DStem2: 459 500 552 500 0.226808 0.97394<21.0931 102.311>
LayerCount: 2
Fore
SplineSet
476 230 m 1xb0
 498 262 520 301 534 340 c 1
 615 290 l 1
 600 245 570 198 537 155 c 5
 558 129 584 105 604 80 c 5
 499 -10 l 5x70
 481 13 464 37 446 60 c 5
 390 17 324 -12 257 -12 c 3
 93 -12 51 100 71 188 c 0
 92 278 139 326 205 379 c 1
 190 412 184 476 194 520 c 0
 226 657 320 710 433 710 c 3
 544 710 566 673 586 646 c 1
 552 500 l 1
 459 500 l 1
 482 598 l 1
 460 606 442 610 410 610 c 3
 370 610 319 580 305 520 c 0
 291 460 312 412 476 230 c 1xb0
254 291 m 1
 205 253 191 228 182 188 c 0
 172 145 198 88 280 88 c 3xb0
 310 88 348 105 387 135 c 1
 254 291 l 1
EndSplineSet
EndChar

